# xmcd CD database file
#
# Track frame offsets:
#	150
#	18094
#	43223
#	57569
#	80396
#	94592
#	118293
#	140082
#	159109
#
# Disc length: 2313 seconds
#
# Revision: 0
# Processed by: cddbd v1.5.1PL2 Copyright (c) Steve Scherf et al.
# Submitted via: CDex 1.70beta2
#
DISCID=72090709
DTITLE=Eric Tipton - Myworld/Mystage
DYEAR=2006
DGENRE=Blues
TTITLE0=There goes my heart
TTITLE1=Sandman
TTITLE2=Long time comin'
TTITLE3=Stay with m
TTITLE4=Friends
TTITLE5=Red dress (she make a fool)
TTITLE6=Beautiful
TTITLE7=Sign me up
TTITLE8=Life
EXTD=YEAR: 2006
EXTT0=
EXTT1=
EXTT2=
EXTT3=
EXTT4=
EXTT5=
EXTT6=
EXTT7=
EXTT8=
PLAYORDER=
